<svg width="213" height="80" viewBox="0 0 213 80" fill="none" xmlns="http://www.w3.org/2000/svg">
<path d="M2.72727 0H0V79.0909H2.72727V0Z" fill="url(#paint0_linear_3_56)"/>
<path d="M5.45452 0H4.09088V79.0909H5.45452V0Z" fill="url(#paint1_linear_3_56)"/>
<path d="M9.54546 0H8.18182V79.0909H9.54546V0Z" fill="url(#paint2_linear_3_56)"/>
<path d="M16.3636 0H15V79.0909H16.3636V0Z" fill="url(#paint3_linear_3_56)"/>
<path d="M21.8182 0H19.0909V79.0909H21.8182V0Z" fill="url(#paint4_linear_3_56)"/>
<path d="M28.6363 0H27.2727V79.0909H28.6363V0Z" fill="url(#paint5_linear_3_56)"/>
<path d="M31.3636 0H30V79.0909H31.3636V0Z" fill="url(#paint6_linear_3_56)"/>
<path d="M35.4546 0H32.7273V79.0909H35.4546V0Z" fill="url(#paint7_linear_3_56)"/>
<path d="M39.5455 0H38.1818V79.0909H39.5455V0Z" fill="url(#paint8_linear_3_56)"/>
<path d="M47.7273 0H45V79.0909H47.7273V0Z" fill="url(#paint9_linear_3_56)"/>
<path d="M51.8182 0H50.4545V79.0909H51.8182V0Z" fill="url(#paint10_linear_3_56)"/>
<path d="M54.5455 0H53.1818V79.0909H54.5455V0Z" fill="url(#paint11_linear_3_56)"/>
<path d="M62.7273 0H60V79.0909H62.7273V0Z" fill="url(#paint12_linear_3_56)"/>
<path d="M66.8182 0H65.4545V79.0909H66.8182V0Z" fill="url(#paint13_linear_3_56)"/>
<path d="M69.5455 0H68.1818V79.0909H69.5455V0Z" fill="url(#paint14_linear_3_56)"/>
<path d="M76.3636 0H75V79.0909H76.3636V0Z" fill="url(#paint15_linear_3_56)"/>
<path d="M85.9091 0H80.4545V79.0909H85.9091V0Z" fill="url(#paint16_linear_3_56)"/>
<path d="M88.6363 0H87.2727V79.0909H88.6363V0Z" fill="url(#paint17_linear_3_56)"/>
<path d="M92.7273 0H90V79.0909H92.7273V0Z" fill="url(#paint18_linear_3_56)"/>
<path d="M96.8182 0H94.0909V79.0909H96.8182V0Z" fill="url(#paint19_linear_3_56)"/>
<path d="M102.273 0H99.5455V79.0909H102.273V0Z" fill="url(#paint20_linear_3_56)"/>
<path d="M110.455 0H105V79.0909H110.455V0Z" fill="url(#paint21_linear_3_56)"/>
<path d="M114.545 0H113.182V79.0909H114.545V0Z" fill="url(#paint22_linear_3_56)"/>
<path d="M117.273 0H115.909V79.0909H117.273V0Z" fill="url(#paint23_linear_3_56)"/>
<path d="M121.364 0H120V79.0909H121.364V0Z" fill="url(#paint24_linear_3_56)"/>
<path d="M130.909 0H125.455V79.0909H130.909V0Z" fill="url(#paint25_linear_3_56)"/>
<path d="M133.636 0H132.273V79.0909H133.636V0Z" fill="url(#paint26_linear_3_56)"/>
<path d="M136.364 0H135V79.0909H136.364V0Z" fill="url(#paint27_linear_3_56)"/>
<path d="M140.455 0H139.091V79.0909H140.455V0Z" fill="url(#paint28_linear_3_56)"/>
<path d="M148.636 0H143.182V79.0909H148.636V0Z" fill="url(#paint29_linear_3_56)"/>
<path d="M152.727 0H150V79.0909H152.727V0Z" fill="url(#paint30_linear_3_56)"/>
<path d="M156.818 0H155.455V79.0909H156.818V0Z" fill="url(#paint31_linear_3_56)"/>
<path d="M159.545 0H158.182V79.0909H159.545V0Z" fill="url(#paint32_linear_3_56)"/>
<path d="M166.364 0H165V79.0909H166.364V0Z" fill="url(#paint33_linear_3_56)"/>
<path d="M173.182 0H171.818V79.0909H173.182V0Z" fill="url(#paint34_linear_3_56)"/>
<path d="M178.636 0H175.909V79.0909H178.636V0Z" fill="url(#paint35_linear_3_56)"/>
<path d="M181.364 0H180V79.0909H181.364V0Z" fill="url(#paint36_linear_3_56)"/>
<path d="M184.091 0H182.727V79.0909H184.091V0Z" fill="url(#paint37_linear_3_56)"/>
<path d="M193.636 0H188.182V79.0909H193.636V0Z" fill="url(#paint38_linear_3_56)"/>
<path d="M197.727 0H195V79.0909H197.727V0Z" fill="url(#paint39_linear_3_56)"/>
<path d="M205.909 0H201.818V79.0909H205.909V0Z" fill="url(#paint40_linear_3_56)"/>
<path d="M208.636 0H207.273V79.0909H208.636V0Z" fill="url(#paint41_linear_3_56)"/>
<path d="M212.727 0H210V79.0909H212.727V0Z" fill="url(#paint42_linear_3_56)"/>
<defs>
<linearGradient id="paint0_linear_3_56" x1="0" y1="0" x2="0" y2="79.0909" gradientUnits="userSpaceOnUse">
<stop/>
<stop offset="1"/>
</linearGradient>
<linearGradient id="paint1_linear_3_56" x1="4.09088" y1="0" x2="4.09088" y2="79.0909" gradientUnits="userSpaceOnUse">
<stop/>
<stop offset="1"/>
</linearGradient>
<linearGradient id="paint2_linear_3_56" x1="8.18182" y1="0" x2="8.18182" y2="79.0909" gradientUnits="userSpaceOnUse">
<stop/>
<stop offset="1"/>
</linearGradient>
<linearGradient id="paint3_linear_3_56" x1="15" y1="0" x2="15" y2="79.0909" gradientUnits="userSpaceOnUse">
<stop/>
<stop offset="1"/>
</linearGradient>
<linearGradient id="paint4_linear_3_56" x1="19.0909" y1="0" x2="19.0909" y2="79.0909" gradientUnits="userSpaceOnUse">
<stop/>
<stop offset="1"/>
</linearGradient>
<linearGradient id="paint5_linear_3_56" x1="27.2727" y1="0" x2="27.2727" y2="79.0909" gradientUnits="userSpaceOnUse">
<stop/>
<stop offset="1"/>
</linearGradient>
<linearGradient id="paint6_linear_3_56" x1="30" y1="0" x2="30" y2="79.0909" gradientUnits="userSpaceOnUse">
<stop/>
<stop offset="1"/>
</linearGradient>
<linearGradient id="paint7_linear_3_56" x1="32.7273" y1="0" x2="32.7273" y2="79.0909" gradientUnits="userSpaceOnUse">
<stop/>
<stop offset="1"/>
</linearGradient>
<linearGradient id="paint8_linear_3_56" x1="38.1818" y1="0" x2="38.1818" y2="79.0909" gradientUnits="userSpaceOnUse">
<stop/>
<stop offset="1"/>
</linearGradient>
<linearGradient id="paint9_linear_3_56" x1="45" y1="0" x2="45" y2="79.0909" gradientUnits="userSpaceOnUse">
<stop/>
<stop offset="1"/>
</linearGradient>
<linearGradient id="paint10_linear_3_56" x1="50.4545" y1="0" x2="50.4545" y2="79.0909" gradientUnits="userSpaceOnUse">
<stop/>
<stop offset="1"/>
</linearGradient>
<linearGradient id="paint11_linear_3_56" x1="53.1818" y1="0" x2="53.1818" y2="79.0909" gradientUnits="userSpaceOnUse">
<stop/>
<stop offset="1"/>
</linearGradient>
<linearGradient id="paint12_linear_3_56" x1="60" y1="0" x2="60" y2="79.0909" gradientUnits="userSpaceOnUse">
<stop/>
<stop offset="1"/>
</linearGradient>
<linearGradient id="paint13_linear_3_56" x1="65.4545" y1="0" x2="65.4545" y2="79.0909" gradientUnits="userSpaceOnUse">
<stop/>
<stop offset="1"/>
</linearGradient>
<linearGradient id="paint14_linear_3_56" x1="68.1818" y1="0" x2="68.1818" y2="79.0909" gradientUnits="userSpaceOnUse">
<stop/>
<stop offset="1"/>
</linearGradient>
<linearGradient id="paint15_linear_3_56" x1="75" y1="0" x2="75" y2="79.0909" gradientUnits="userSpaceOnUse">
<stop/>
<stop offset="1"/>
</linearGradient>
<linearGradient id="paint16_linear_3_56" x1="80.4545" y1="0" x2="80.4545" y2="79.0909" gradientUnits="userSpaceOnUse">
<stop/>
<stop offset="1"/>
</linearGradient>
<linearGradient id="paint17_linear_3_56" x1="87.2727" y1="0" x2="87.2727" y2="79.0909" gradientUnits="userSpaceOnUse">
<stop/>
<stop offset="1"/>
</linearGradient>
<linearGradient id="paint18_linear_3_56" x1="90" y1="0" x2="90" y2="79.0909" gradientUnits="userSpaceOnUse">
<stop/>
<stop offset="1"/>
</linearGradient>
<linearGradient id="paint19_linear_3_56" x1="94.0909" y1="0" x2="94.0909" y2="79.0909" gradientUnits="userSpaceOnUse">
<stop/>
<stop offset="1"/>
</linearGradient>
<linearGradient id="paint20_linear_3_56" x1="99.5455" y1="0" x2="99.5455" y2="79.0909" gradientUnits="userSpaceOnUse">
<stop/>
<stop offset="1"/>
</linearGradient>
<linearGradient id="paint21_linear_3_56" x1="105" y1="0" x2="105" y2="79.0909" gradientUnits="userSpaceOnUse">
<stop/>
<stop offset="1"/>
</linearGradient>
<linearGradient id="paint22_linear_3_56" x1="113.182" y1="0" x2="113.182" y2="79.0909" gradientUnits="userSpaceOnUse">
<stop/>
<stop offset="1"/>
</linearGradient>
<linearGradient id="paint23_linear_3_56" x1="115.909" y1="0" x2="115.909" y2="79.0909" gradientUnits="userSpaceOnUse">
<stop/>
<stop offset="1"/>
</linearGradient>
<linearGradient id="paint24_linear_3_56" x1="120" y1="0" x2="120" y2="79.0909" gradientUnits="userSpaceOnUse">
<stop/>
<stop offset="1"/>
</linearGradient>
<linearGradient id="paint25_linear_3_56" x1="125.455" y1="0" x2="125.455" y2="79.0909" gradientUnits="userSpaceOnUse">
<stop/>
<stop offset="1"/>
</linearGradient>
<linearGradient id="paint26_linear_3_56" x1="132.273" y1="0" x2="132.273" y2="79.0909" gradientUnits="userSpaceOnUse">
<stop/>
<stop offset="1"/>
</linearGradient>
<linearGradient id="paint27_linear_3_56" x1="135" y1="0" x2="135" y2="79.0909" gradientUnits="userSpaceOnUse">
<stop/>
<stop offset="1"/>
</linearGradient>
<linearGradient id="paint28_linear_3_56" x1="139.091" y1="0" x2="139.091" y2="79.0909" gradientUnits="userSpaceOnUse">
<stop/>
<stop offset="1"/>
</linearGradient>
<linearGradient id="paint29_linear_3_56" x1="143.182" y1="0" x2="143.182" y2="79.0909" gradientUnits="userSpaceOnUse">
<stop/>
<stop offset="1"/>
</linearGradient>
<linearGradient id="paint30_linear_3_56" x1="150" y1="0" x2="150" y2="79.0909" gradientUnits="userSpaceOnUse">
<stop/>
<stop offset="1"/>
</linearGradient>
<linearGradient id="paint31_linear_3_56" x1="155.455" y1="0" x2="155.455" y2="79.0909" gradientUnits="userSpaceOnUse">
<stop/>
<stop offset="1"/>
</linearGradient>
<linearGradient id="paint32_linear_3_56" x1="158.182" y1="0" x2="158.182" y2="79.0909" gradientUnits="userSpaceOnUse">
<stop/>
<stop offset="1"/>
</linearGradient>
<linearGradient id="paint33_linear_3_56" x1="165" y1="0" x2="165" y2="79.0909" gradientUnits="userSpaceOnUse">
<stop/>
<stop offset="1"/>
</linearGradient>
<linearGradient id="paint34_linear_3_56" x1="171.818" y1="0" x2="171.818" y2="79.0909" gradientUnits="userSpaceOnUse">
<stop/>
<stop offset="1"/>
</linearGradient>
<linearGradient id="paint35_linear_3_56" x1="175.909" y1="0" x2="175.909" y2="79.0909" gradientUnits="userSpaceOnUse">
<stop/>
<stop offset="1"/>
</linearGradient>
<linearGradient id="paint36_linear_3_56" x1="180" y1="0" x2="180" y2="79.0909" gradientUnits="userSpaceOnUse">
<stop/>
<stop offset="1"/>
</linearGradient>
<linearGradient id="paint37_linear_3_56" x1="182.727" y1="0" x2="182.727" y2="79.0909" gradientUnits="userSpaceOnUse">
<stop/>
<stop offset="1"/>
</linearGradient>
<linearGradient id="paint38_linear_3_56" x1="188.182" y1="0" x2="188.182" y2="79.0909" gradientUnits="userSpaceOnUse">
<stop/>
<stop offset="1"/>
</linearGradient>
<linearGradient id="paint39_linear_3_56" x1="195" y1="0" x2="195" y2="79.0909" gradientUnits="userSpaceOnUse">
<stop/>
<stop offset="1"/>
</linearGradient>
<linearGradient id="paint40_linear_3_56" x1="201.818" y1="0" x2="201.818" y2="79.0909" gradientUnits="userSpaceOnUse">
<stop/>
<stop offset="1"/>
</linearGradient>
<linearGradient id="paint41_linear_3_56" x1="207.273" y1="0" x2="207.273" y2="79.0909" gradientUnits="userSpaceOnUse">
<stop/>
<stop offset="1"/>
</linearGradient>
<linearGradient id="paint42_linear_3_56" x1="210" y1="0" x2="210" y2="79.0909" gradientUnits="userSpaceOnUse">
<stop/>
<stop offset="1"/>
</linearGradient>
</defs>
</svg>
